<svg width="56" height="56" viewBox="0 0 56 56" fill="none" xmlns="http://www.w3.org/2000/svg">
<path d="M24.6743 5.62291C26.2807 4.26893 28.8739 4.26893 30.4344 5.62291L34.0603 8.72101C34.7488 9.29473 36.0569 9.77666 36.9749 9.77666H40.8762C43.3087 9.77666 45.3053 11.7732 45.3053 14.2058V18.1071C45.3053 19.0251 45.7872 20.3102 46.3609 20.9987L49.459 24.6245C50.813 26.2309 50.813 28.8241 49.459 30.3846L46.3609 34.0106C45.7872 34.699 45.3053 35.9842 45.3053 36.9021V40.8034C45.3053 43.236 43.3087 45.2326 40.8762 45.2326H36.9749C36.0569 45.2326 34.7718 45.7145 34.0833 46.2882L30.4574 49.3863C28.851 50.7403 26.2577 50.7403 24.6972 49.3863L21.0713 46.2882C20.3828 45.7145 19.0747 45.2326 18.1797 45.2326H14.1637C11.7311 45.2326 9.73454 43.236 9.73454 40.8034V36.8792C9.73454 35.9842 9.27556 34.6761 8.70184 34.0106L5.60374 30.3617C4.27271 28.7782 4.27271 26.2079 5.60374 24.6245L8.70184 20.9757C9.27556 20.2872 9.73454 19.0021 9.73454 18.1071V14.2287C9.73454 11.7962 11.7311 9.7996 14.1637 9.7996H18.1338C19.0518 9.7996 20.3369 9.31768 21.0254 8.74396L24.6743 5.62291Z" stroke="#005478" stroke-width="3.13333" stroke-linecap="round" stroke-linejoin="round"/>
<path d="M27.5391 18.6572V29.7415" stroke="#005478" stroke-width="3.13333" stroke-linecap="round" stroke-linejoin="round"/>
<path d="M27.5234 36.7183H27.5408" stroke="#005478" stroke-width="3.13333" stroke-linecap="round" stroke-linejoin="round"/>
</svg>
