<svg width="35" height="35" viewBox="0 0 35 35" fill="none" xmlns="http://www.w3.org/2000/svg">
<path d="M34.0647 17.0324C34.0647 7.62565 26.439 0 17.0324 0C7.62563 0 0 7.62565 0 17.0324C0 25.5337 6.22847 32.5801 14.371 33.8578V21.9558H10.0464V17.0324H14.371V13.2799C14.371 9.01118 16.9138 6.65328 20.8044 6.65328C22.6679 6.65328 24.6171 6.98594 24.6171 6.98594V11.1775H22.4693C20.3535 11.1775 19.6937 12.4904 19.6937 13.8374V17.0324H24.4175L23.6623 21.9558H19.6936V33.8578C27.8362 32.5801 34.0647 25.5337 34.0647 17.0324Z" fill="#1877F2"/>
<path d="M23.6623 21.956L24.4174 17.0325H19.6936V13.8375C19.6936 12.4906 20.3534 11.1777 22.4693 11.1777H24.617V6.9861C24.617 6.9861 22.6679 6.65344 20.8044 6.65344C16.9138 6.65344 14.371 9.01135 14.371 13.2801V17.0325H10.0464V21.956H14.371V33.858C15.2514 33.996 16.1412 34.0651 17.0323 34.0649C17.9377 34.0649 18.8265 33.9941 19.6936 33.858V21.956H23.6623Z" fill="white"/>
</svg>
