<svg width="46" height="46" viewBox="0 0 46 46" fill="none" xmlns="http://www.w3.org/2000/svg">
<path d="M5.75 23H15.3333M5.75 23C5.75 32.5269 13.4731 40.25 23 40.25M5.75 23C5.75 13.4731 13.4731 5.75 23 5.75M15.3333 23H30.6667M15.3333 23C15.3333 32.5269 18.7658 40.25 23 40.25M15.3333 23C15.3333 13.4731 18.7658 5.75 23 5.75M30.6667 23H40.25M30.6667 23C30.6667 13.4731 27.2342 5.75 23 5.75M30.6667 23C30.6667 32.5269 27.2342 40.25 23 40.25M40.25 23C40.25 13.4731 32.5269 5.75 23 5.75M40.25 23C40.25 32.5269 32.5269 40.25 23 40.25" stroke="#F8A813" stroke-width="3" stroke-linecap="round" stroke-linejoin="round"/>
</svg>
