<svg width="35" height="35" viewBox="0 0 35 35" fill="none" xmlns="http://www.w3.org/2000/svg">
<path d="M17.0333 0C12.4077 0 11.8272 0.0202263 10.0105 0.102904C8.19731 0.185937 6.95966 0.473004 5.87671 0.894201C4.75651 1.32924 3.80627 1.91118 2.85958 2.85825C1.91218 3.80497 1.33026 4.75523 0.893819 5.87511C0.47157 6.95845 0.184157 8.19649 0.102546 10.009C0.0212897 11.8258 0 12.4067 0 17.0324C0 21.6581 0.0205805 22.2369 0.102901 24.0537C0.186287 25.8669 0.473345 27.1046 0.894174 28.1876C1.32955 29.3078 1.91147 30.2581 2.85852 31.2048C3.80485 32.1522 4.75509 32.7356 5.87458 33.1706C6.95824 33.5918 8.19624 33.8789 10.0091 33.9619C11.8258 34.0446 12.406 34.0648 17.0312 34.0648C21.6571 34.0648 22.2358 34.0446 24.0526 33.9619C25.8658 33.8789 27.1048 33.5918 28.1885 33.1706C29.3083 32.7356 30.2572 32.1522 31.2035 31.2048C32.1509 30.2581 32.7328 29.3078 33.1692 28.1879C33.5879 27.1046 33.8754 25.8665 33.9605 24.054C34.0421 22.2372 34.0634 21.6581 34.0634 17.0324C34.0634 12.4067 34.0421 11.8262 33.9605 10.0094C33.8754 8.19613 33.5879 6.95845 33.1692 5.87547C32.7328 4.75523 32.1509 3.80497 31.2035 2.85825C30.2561 1.91082 29.3087 1.32888 28.1874 0.894201C27.1016 0.473004 25.8633 0.185937 24.0501 0.102904C22.2334 0.0202263 21.655 0 17.028 0H17.0333ZM15.5054 3.06938C15.9589 3.06867 16.4649 3.06938 17.0333 3.06938C21.5808 3.06938 22.1198 3.0857 23.9156 3.16732C25.5762 3.24325 26.4775 3.52074 27.0779 3.75387C27.8727 4.06258 28.4394 4.43162 29.0351 5.02775C29.6312 5.62389 30.0003 6.19163 30.3097 6.98648C30.5428 7.58616 30.8206 8.48746 30.8962 10.1481C30.9778 11.9436 30.9956 12.483 30.9956 17.0285C30.9956 21.574 30.9778 22.1134 30.8962 23.9089C30.8203 25.5695 30.5428 26.4708 30.3097 27.0705C30.001 27.8654 29.6312 28.4313 29.0351 29.0271C28.439 29.6233 27.873 29.9923 27.0779 30.301C26.4782 30.5352 25.5762 30.812 23.9156 30.8879C22.1202 30.9695 21.5808 30.9873 17.0333 30.9873C12.4854 30.9873 11.9465 30.9695 10.151 30.8879C8.4904 30.8113 7.58913 30.5338 6.9884 30.3006C6.19358 29.9919 5.62585 29.6229 5.02973 29.0268C4.43361 28.4306 4.06459 27.8643 3.75518 27.0691C3.52205 26.4694 3.24422 25.5681 3.16864 23.9075C3.08703 22.112 3.07071 21.5726 3.07071 17.0242C3.07071 12.4759 3.08703 11.9394 3.16864 10.1439C3.24457 8.4832 3.52205 7.5819 3.75518 6.98151C4.06388 6.18667 4.43361 5.61892 5.02973 5.02278C5.62585 4.42665 6.19358 4.05762 6.9884 3.74819C7.58877 3.514 8.4904 3.23722 10.151 3.16093C11.7222 3.08996 12.3311 3.06867 15.5054 3.06512V3.06938ZM26.1248 5.89747C24.9964 5.89747 24.081 6.8119 24.081 7.94065C24.081 9.06905 24.9964 9.98454 26.1248 9.98454C27.2532 9.98454 28.1686 9.06905 28.1686 7.94065C28.1686 6.81225 27.2532 5.89747 26.1248 5.89747ZM17.0333 8.28555C12.203 8.28555 8.28672 12.2019 8.28672 17.0324C8.28672 21.8629 12.203 25.7775 17.0333 25.7775C21.8636 25.7775 25.7785 21.8629 25.7785 17.0324C25.7785 12.2019 21.8636 8.28555 17.0333 8.28555ZM17.0333 11.3549C20.1686 11.3549 22.7106 13.8967 22.7106 17.0324C22.7106 20.1678 20.1686 22.7099 17.0333 22.7099C13.8977 22.7099 11.356 20.1678 11.356 17.0324C11.356 13.8967 13.8977 11.3549 17.0333 11.3549Z" fill="url(#paint0_linear_57_833)"/>
<defs>
<linearGradient id="paint0_linear_57_833" x1="17.0317" y1="0" x2="17.0317" y2="34.0648" gradientUnits="userSpaceOnUse">
<stop stop-color="#7924B8"/>
<stop offset="0.269262" stop-color="#A71D8B"/>
<stop offset="0.613016" stop-color="#C64155"/>
<stop offset="1" stop-color="#DE9544"/>
</linearGradient>
</defs>
</svg>
