<svg width="46" height="46" viewBox="0 0 46 46" fill="none" xmlns="http://www.w3.org/2000/svg">
<path fill-rule="evenodd" clip-rule="evenodd" d="M11.6161 9.3169C14.6356 6.29741 18.7309 4.60107 23.0011 4.60107C27.2713 4.60107 31.3666 6.29741 34.3861 9.3169C37.4056 12.3364 39.1019 16.4317 39.1019 20.7019C39.1019 24.9721 37.4056 29.0674 34.3861 32.0869L23.0011 43.4719L11.6161 32.0869C10.1209 30.5919 8.9348 28.8169 8.1256 26.8635C7.3164 24.91 6.8999 22.8163 6.8999 20.7019C6.8999 18.5875 7.3164 16.4938 8.1256 14.5403C8.9348 12.5869 10.1209 10.8119 11.6161 9.3169ZM23.0011 25.3019C24.2211 25.3019 25.3911 24.8173 26.2538 23.9546C27.1164 23.0919 27.6011 21.9219 27.6011 20.7019C27.6011 19.4819 27.1164 18.3119 26.2538 17.4492C25.3911 16.5865 24.2211 16.1019 23.0011 16.1019C21.7811 16.1019 20.611 16.5865 19.7484 17.4492C18.8857 18.3119 18.4011 19.4819 18.4011 20.7019C18.4011 21.9219 18.8857 23.0919 19.7484 23.9546C20.611 24.8173 21.7811 25.3019 23.0011 25.3019Z" fill="#F8A813"/>
</svg>
