<svg width="46" height="46" viewBox="0 0 46 46" fill="none" xmlns="http://www.w3.org/2000/svg">
<path d="M4.60596 13.5334L22.9991 22.7288L41.3922 13.5334C41.3241 12.3614 40.8105 11.2598 39.9566 10.4542C39.1026 9.64862 37.973 9.19998 36.7991 9.2002H9.19906C8.0251 9.19998 6.89549 9.64862 6.04157 10.4542C5.18765 11.2598 4.67405 12.3614 4.60596 13.5334Z" fill="#F8A813"/>
<path d="M41.3991 18.6724L22.9991 27.8724L4.59912 18.6724V32.201C4.59912 33.421 5.08376 34.591 5.94643 35.4537C6.8091 36.3163 7.97912 36.801 9.19912 36.801H36.7991C38.0191 36.801 39.1891 36.3163 40.0518 35.4537C40.9145 34.591 41.3991 33.421 41.3991 32.201V18.6724Z" fill="#F8A813"/>
</svg>
