<svg width="46" height="46" viewBox="0 0 46 46" fill="none" xmlns="http://www.w3.org/2000/svg">
<path d="M41.2233 6.01969C41.1085 5.74288 40.9405 5.49127 40.7288 5.27909L40.7197 5.26989C40.2892 4.84069 39.706 4.59996 39.0982 4.60059H29.8982C29.2882 4.60059 28.7031 4.84291 28.2718 5.27424C27.8405 5.70558 27.5982 6.29059 27.5982 6.90059C27.5982 7.51058 27.8405 8.0956 28.2718 8.52693C28.7031 8.95827 29.2882 9.20059 29.8982 9.20059H33.546L25.9721 16.7745C25.5531 17.2083 25.3213 17.7893 25.3265 18.3923C25.3317 18.9954 25.5736 19.5722 26.0001 19.9987C26.4265 20.4251 27.0034 20.667 27.6064 20.6722C28.2095 20.6775 28.7905 20.4457 29.2243 20.0267L36.7982 12.4528V16.1006C36.7982 16.7106 37.0405 17.2956 37.4718 17.7269C37.9031 18.1583 38.4882 18.4006 39.0982 18.4006C39.7081 18.4006 40.2932 18.1583 40.7245 17.7269C41.1558 17.2956 41.3981 16.7106 41.3981 16.1006V6.90059C41.3985 6.5983 41.3391 6.29893 41.2233 6.01969Z" fill="#F8A813"/>
<path d="M4.59937 6.90059C4.59937 6.29059 4.84169 5.70557 5.27302 5.27424C5.70435 4.84291 6.28937 4.60059 6.89936 4.60059H11.8513C12.3957 4.60084 12.9224 4.7942 13.3376 5.14628C13.7529 5.49836 14.0298 5.98633 14.1191 6.52339L15.8211 16.7239C15.9024 17.2097 15.8256 17.7088 15.602 18.1477C15.3784 18.5865 15.0199 18.9421 14.5791 19.1619L11.0187 20.9398C12.2954 24.1038 14.1969 26.9779 16.6094 29.3905C19.022 31.8031 21.8962 33.7045 25.0602 34.9813L26.8404 31.4209C27.0601 30.9805 27.4152 30.6222 27.8536 30.3987C28.292 30.1751 28.7906 30.0981 29.2761 30.1789L39.4766 31.8809C40.0136 31.9702 40.5016 32.2471 40.8537 32.6623C41.2057 33.0776 41.3991 33.6043 41.3994 34.1487V39.1006C41.3994 39.7106 41.157 40.2956 40.7257 40.7269C40.2944 41.1583 39.7094 41.4006 39.0994 41.4006H34.4994C17.9854 41.4006 4.59937 28.0146 4.59937 11.5006V6.90059Z" fill="#F8A813"/>
</svg>
