<svg width="101" height="101" viewBox="0 0 101 101" fill="none" xmlns="http://www.w3.org/2000/svg">
<path d="M68.3096 8.35608C82.4161 8.35608 91.8945 18.2228 91.8945 32.9518V67.2633C91.8945 67.894 91.7815 68.4582 91.748 69.068C91.7272 69.423 91.7314 69.7784 91.7021 70.1334C91.6854 70.2922 91.6398 70.4386 91.623 70.5973C91.4852 71.9089 91.2722 73.162 90.9756 74.3776C90.9004 74.7034 90.8123 75.0171 90.7246 75.3346C90.3905 76.5124 89.9983 77.6362 89.5264 78.7096C89.3885 79.0104 89.2377 79.2988 89.0957 79.5953C88.5862 80.6186 88.0345 81.5999 87.3955 82.5104C87.1992 82.7903 86.982 83.0416 86.7773 83.3131C86.1133 84.1734 85.4199 84.9962 84.6348 85.7438C84.38 85.986 84.0915 86.1948 83.8242 86.4244C83.018 87.1179 82.1945 87.7821 81.2881 88.3502C80.9624 88.5548 80.6036 88.7056 80.2695 88.8893C79.3464 89.3989 78.4144 89.8956 77.3994 90.2799C76.9818 90.4386 76.5183 90.523 76.084 90.6608C75.0856 90.9699 74.0989 91.2914 73.0254 91.4752C72.2151 91.6172 71.3335 91.6337 70.4814 91.7047C69.7547 91.759 69.0655 91.901 68.3096 91.901H31.9004C30.3299 91.901 28.8303 91.7426 27.3809 91.5045C27.3266 91.4962 27.2766 91.4875 27.2266 91.4791C21.5747 90.5058 16.8832 87.7783 13.5957 83.6637C13.5584 83.6635 13.558 83.6221 13.5205 83.5846C10.2163 79.4241 8.34961 73.8299 8.34961 67.2633V32.9518C8.34961 18.2229 17.8358 8.35625 31.9004 8.35608H68.3096ZM31.9014 14.1832C21.1366 14.1832 14.1816 21.5646 14.1816 32.9518V67.2633C14.1816 70.4589 14.775 73.3121 15.79 75.7809C15.9323 75.6108 24.0103 65.7596 24.0479 65.7262C26.9385 62.4262 32.3652 57.5057 39.4873 60.484C41.1999 61.1941 42.7036 62.1927 44.082 63.0699C46.4756 64.6698 47.8837 65.4218 49.3457 65.2965C49.9512 65.213 50.5189 65.0329 51.0576 64.6989C53.388 63.2622 59.9734 53.6588 60.373 53.1324C64.9263 47.2007 71.9448 45.6128 77.793 49.1217C78.5791 49.5902 84.2042 53.5202 86.0674 55.0992V32.9518C86.0674 21.5647 79.1127 14.1834 68.3105 14.1832H31.9014ZM35.417 25.0631C38.3311 25.0632 40.9702 26.2888 42.8604 28.2438C44.7587 30.1304 45.9492 32.731 45.9492 35.569C45.9492 41.2288 41.2132 45.9496 35.5264 45.9498C30.5275 45.9498 26.265 42.2975 25.3096 37.569C25.1517 36.8595 25.0625 36.1295 25.0625 35.3756C25.0625 29.6753 29.6935 25.0631 35.417 25.0631Z" fill="#F8A813"/>
</svg>
